HIERARCHY
ROOT Hips
{
	OFFSET 0.00000 0.00000 0.00000
	CHANNELS 6 Xposition Yposition Zposition Zrotation Yrotation Xrotation 
	JOINT LHipJoint
	{
		OFFSET 0 0 0
		CHANNELS 3 Zrotation Yrotation Xrotation
		JOINT LeftUpLeg
		{
			OFFSET 1.52977 -1.71332 0.88991
			CHANNELS 3 Zrotation Yrotation Xrotation
			JOINT LeftLeg
			{
				OFFSET 2.23949 -6.15296 0.00000
				CHANNELS 3 Zrotation Yrotation Xrotation
				JOINT LeftFoot
				{
					OFFSET 2.68396 -7.37412 0.00000
					CHANNELS 3 Zrotation Yrotation Xrotation
					JOINT LeftToeBase
					{
						OFFSET 0.20538 -0.56428 2.52710
						CHANNELS 3 Zrotation Yrotation Xrotation
						End Site
						{
							OFFSET 0.00000 -0.00000 1.29919
						}
					}
				}
			}
		}
	}
	JOINT RHipJoint
	{
		OFFSET 0 0 0
		CHANNELS 3 Zrotation Yrotation Xrotation
		JOINT RightUpLeg
		{
			OFFSET -1.45689 -1.71333 0.88991
			CHANNELS 3 Zrotation Yrotation Xrotation
			JOINT RightLeg
			{
				OFFSET -2.36700 -6.50329 0.00000
				CHANNELS 3 Zrotation Yrotation Xrotation
				JOINT RightFoot
				{
					OFFSET -2.69814 -7.41308 0.00000
					CHANNELS 3 Zrotation Yrotation Xrotation
					JOINT RightToeBase
					{
						OFFSET -0.18734 -0.51471 2.37479
						CHANNELS 3 Zrotation Yrotation Xrotation
						End Site
						{
							OFFSET -0.00000 -0.00000 1.22113
						}
					}
				}
			}
		}
	}
	JOINT LowerBack
	{
		OFFSET 0 0 0
		CHANNELS 3 Zrotation Yrotation Xrotation
		JOINT Spine
		{
			OFFSET 0.04294 2.14638 -0.31163
			CHANNELS 3 Zrotation Yrotation Xrotation
			JOINT Spine1
			{
				OFFSET -0.00400 2.17216 0.01486
				CHANNELS 3 Zrotation Yrotation Xrotation
				JOINT Neck
				{
					OFFSET 0 0 0
					CHANNELS 3 Zrotation Yrotation Xrotation
					JOINT Neck1
					{
						OFFSET 0.03869 1.76598 0.14916
						CHANNELS 3 Zrotation Yrotation Xrotation
						JOINT Head
						{
							OFFSET -0.00760 1.75513 -0.18948
							CHANNELS 3 Zrotation Yrotation Xrotation
							End Site
							{
								OFFSET -0.00601 1.82444 -0.08310
							}
						}
					}
				}
				JOINT LeftShoulder
				{
					OFFSET 0 0 0
					CHANNELS 3 Zrotation Yrotation Xrotation
					JOINT LeftArm
					{
						OFFSET 3.73696 0.92058 0.01733
						CHANNELS 3 Zrotation Yrotation Xrotation
						JOINT LeftForeArm
						{
							OFFSET 5.22771 -0.00000 0.00000
							CHANNELS 3 Zrotation Yrotation Xrotation
							JOINT LeftHand
							{
								OFFSET 3.45251 -0.00000 0.00000
								CHANNELS 3 Zrotation Yrotation Xrotation
								JOINT LeftFingerBase
								{
									OFFSET 0 0 0
									CHANNELS 3 Zrotation Yrotation Xrotation
									JOINT LeftHandIndex1
									{
										OFFSET 0.55212 -0.00000 0.00000
										CHANNELS 3 Zrotation Yrotation Xrotation
										End Site
										{
											OFFSET 0.44513 -0.00000 0.00000
										}
									}
								}
								JOINT LThumb
								{
									OFFSET 0 0 0
									CHANNELS 3 Zrotation Yrotation Xrotation
									End Site
									{
										OFFSET 0.45193 -0.00000 0.45193
									}
								}
							}
						}
					}
				}
				JOINT RightShoulder
				{
					OFFSET 0 0 0
					CHANNELS 3 Zrotation Yrotation Xrotation
					JOINT RightArm
					{
						OFFSET -3.63819 0.83094 -0.13694
						CHANNELS 3 Zrotation Yrotation Xrotation
						JOINT RightForeArm
						{
							OFFSET -5.23980 -0.00000 -0.00000
							CHANNELS 3 Zrotation Yrotation Xrotation
							JOINT RightHand
							{
								OFFSET -3.48042 -0.00000 -0.00000
								CHANNELS 3 Zrotation Yrotation Xrotation
								JOINT RightFingerBase
								{
									OFFSET 0 0 0
									CHANNELS 3 Zrotation Yrotation Xrotation
									JOINT RightHandIndex1
									{
										OFFSET -0.61871 -0.00000 0.00000
										CHANNELS 3 Zrotation Yrotation Xrotation
										End Site
										{
											OFFSET -0.49882 -0.00000 0.00000
										}
									}
								}
								JOINT RThumb
								{
									OFFSET 0 0 0
									CHANNELS 3 Zrotation Yrotation Xrotation
									End Site
									{
										OFFSET -0.50644 -0.00000 0.50644
									}
								}
							}
						}
					}
				}
			}
		}
	}
}
MOTION
Frames: 6
Frame Time: .0083333
2.8294 17.4423 -6.2083 6.9806 85.6187 6.1561 0.0000 0.0000 0.0000 -23.7396 16.3251 -8.6467 1.8912 8.6357 24.6621 -0.1467 -7.3486 -0.3490 2.5046 -9.8462 -28.4801 0.0000 0.0000 0.0000 19.3514 10.5743 -15.5504 -8.2241 -16.2816 53.3658 -0.3160 -8.7993 -17.2366 -0.0572 1.5429 -4.2441 -0.5410 -0.4187 2.5682 -1.3257 -0.5612 1.1243 -1.0385 -0.2725 -0.2959 0.8416 0.2546 -6.8797 2.2031 0.0630 10.6750 0.6075 0.2139 4.7982 0.0000 0.0000 0.0000 -86.8831 -4.4295 13.7923 11.2269 -18.6353 -1.8478 -0.0000 0.0000 -16.4610 18.8218 10.9824 3.7153 -7.1250 0.0000 -0.0000 -7.3771 41.4532 0.6493 0.0000 0.0000 0.0000 91.3808 -0.5627 17.8442 -11.7090 19.3668 -2.0047 0.0000 0.0000 6.4331 -19.7828 -8.0055 2.8677 7.1250 -0.0000 -0.0000 6.0829 -38.4144 0.9909
2.9268 17.4402 -6.2075 7.9461 85.6749 7.1736 0.0000 0.0000 0.0000 -23.7946 16.3801 -8.2235 1.8613 8.5710 24.4622 -0.1390 -7.2049 -0.4573 2.5326 -9.8970 -28.6439 0.0000 0.0000 0.0000 19.1749 10.9479 -16.4209 -7.9922 -16.1135 52.5347 -0.3870 -8.2948 -17.5868 -0.0617 1.6030 -4.4097 -0.6027 -0.4460 2.6400 -1.3263 -0.5990 1.1534 -1.0031 -0.2912 -0.3062 0.8476 0.2646 -6.9165 2.1564 0.0798 10.6634 0.5916 0.2196 4.8013 0.0000 0.0000 0.0000 -86.8977 -4.5877 14.0155 11.2958 -18.7402 -1.8698 -0.0000 0.0000 -16.5320 18.8089 10.9591 3.7048 -7.1250 0.0000 -0.0000 -7.3843 41.4277 0.6546 0.0000 0.0000 0.0000 91.3510 -0.4936 17.8441 -11.7097 19.3678 -2.0050 0.0000 0.0000 6.4264 -19.7951 -7.9648 2.8551 7.1250 -0.0000 -0.0000 6.0669 -38.3723 0.9946
3.0251 17.4409 -6.2058 8.8758 85.7349 8.1684 0.0000 0.0000 0.0000 -23.8418 16.4754 -7.7527 1.8132 8.4655 24.1372 -0.1332 -7.0832 -0.5150 2.5593 -9.9450 -28.7987 0.0000 0.0000 0.0000 19.0057 11.3064 -17.2687 -7.7388 -15.9238 51.6165 -0.4423 -7.9065 -17.8662 -0.0723 1.7352 -4.7744 -0.6683 -0.4721 2.7026 -1.3245 -0.6354 1.1770 -0.9630 -0.3093 -0.3167 0.8566 0.2725 -6.9462 2.1132 0.0933 10.6442 0.5760 0.2238 4.8001 0.0000 0.0000 0.0000 -86.9152 -4.7307 14.2545 11.3641 -18.8442 -1.8919 -0.0000 0.0000 -16.5992 18.8179 10.9688 3.7099 -7.1250 0.0000 -0.0000 -7.3780 41.4386 0.6521 0.0000 0.0000 0.0000 91.3224 -0.4313 17.8368 -11.7104 19.3689 -2.0052 0.0000 0.0000 6.4246 -19.8284 -7.8860 2.8323 7.1250 -0.0000 -0.0000 6.0283 -38.2917 1.0002
3.1240 17.4440 -6.2036 9.7722 85.7989 9.1448 0.0000 0.0000 0.0000 -23.8833 16.6114 -7.2417 1.7484 8.3211 23.6935 -0.1292 -6.9818 -0.5225 2.5840 -9.9891 -28.9415 0.0000 0.0000 0.0000 18.8418 11.6489 -18.0969 -7.4675 -15.7133 50.6211 -0.4733 -7.7114 -18.0437 -0.0903 1.9384 -5.3355 -0.7356 -0.4985 2.7577 -1.3195 -0.6724 1.1938 -0.9186 -0.3278 -0.3299 0.8662 0.2794 -6.9684 2.0733 0.1053 10.6192 0.5613 0.2274 4.7953 0.0000 0.0000 0.0000 -86.9388 -4.8568 14.5068 11.4347 -18.9514 -1.9147 -0.0000 0.0000 -16.6666 18.8270 10.9965 3.7211 -7.1250 0.0000 -0.0000 -7.3750 41.4684 0.6464 0.0000 0.0000 0.0000 91.2926 -0.3760 17.8187 -11.7138 19.3741 -2.0063 0.0000 0.0000 6.4388 -19.8649 -7.8094 2.8106 7.1250 -0.0000 -0.0000 5.9871 -38.2136 1.0048
3.2234 17.4489 -6.2010 10.6002 85.8663 10.0613 0.0000 0.0000 0.0000 -23.9120 16.8000 -6.6932 1.6696 8.1411 23.1435 -0.1272 -6.9117 -0.4808 2.6067 -10.0293 -29.0718 0.0000 0.0000 0.0000 18.6888 11.9758 -18.8977 -7.1820 -15.4833 49.5594 -0.4906 -7.6582 -18.1919 -0.1100 2.1387 -5.8891 -0.8015 -0.5249 2.8079 -1.3097 -0.7094 1.2070 -0.8702 -0.3463 -0.3439 0.8736 0.2856 -6.9849 2.0385 0.1161 10.5889 0.5485 0.2305 4.7873 -0.0000 0.0000 0.0000 -86.9701 -4.9695 14.7624 11.5038 -19.0564 -1.9372 -0.0000 0.0000 -16.7215 18.8255 11.0209 3.7289 -7.1250 0.0000 -0.0000 -7.3807 41.4935 0.6423 -0.0000 0.0000 0.0000 91.2589 -0.3215 17.7887 -11.7159 19.3772 -2.0070 0.0000 0.0000 6.4605 -19.8945 -7.7423 2.7911 7.1250 -0.0000 -0.0000 5.9532 -38.1449 1.0091
3.3238 17.4546 -6.1980 11.3831 85.9397 10.9341 0.0000 0.0000 0.0000 -23.9252 17.0342 -6.1012 1.5798 7.9296 22.5005 -0.1263 -6.8545 -0.4004 2.6112 -10.0373 -29.0977 0.0000 0.0000 0.0000 18.5460 12.2837 -19.6607 -6.8859 -15.2351 48.4415 -0.4965 -7.7242 -18.3171 -0.1255 2.2841 -6.2915 -0.8642 -0.5530 2.8577 -1.2974 -0.7489 1.2168 -0.8208 -0.3661 -0.3611 0.8747 0.2916 -6.9958 2.0145 0.1264 10.5577 0.5406 0.2337 4.7780 -0.0000 0.0000 0.0000 -87.0076 -5.0640 15.0177 11.5726 -19.1605 -1.9597 -0.0000 0.0000 -16.7592 18.8109 11.0367 3.7311 -7.1250 0.0000 -0.0000 -7.3964 41.5087 0.6409 -0.0000 0.0000 0.0000 91.2230 -0.2719 17.7540 -11.7156 19.3767 -2.0069 0.0000 0.0000 6.4826 -19.9178 -7.6761 2.7709 7.1250 -0.0000 -0.0000 5.9248 -38.0766 1.0143
